<svg width="496" height="499" viewBox="0 0 496 499" fill="none" xmlns="http://www.w3.org/2000/svg">
<path style="mix-blend-mode:screen" opacity="0.15" d="M0.692668 46.9792C0.765977 56.0205 3.51399 64.8376 8.59037 72.3196C13.6667 79.8015 20.8443 85.6133 29.2184 89.0226C37.5925 92.4318 46.7885 93.2859 55.6472 91.4772C64.506 89.6685 72.6311 85.2779 78.9985 78.8588C85.366 72.4398 89.6908 64.2795 91.4279 55.4064C93.165 46.5334 92.2367 37.3446 88.76 28.9983C85.2832 20.652 79.4136 13.5216 71.8909 8.5058C64.3682 3.49001 55.5291 0.813286 46.4876 0.812988C40.4424 0.81279 34.4569 2.00951 28.8765 4.33411C23.296 6.6587 18.2311 10.0652 13.9737 14.3571C9.71638 18.6489 6.35092 23.7412 4.07146 29.3402C1.792 34.9392 0.643652 40.9342 0.692668 46.9792Z" fill="url(#paint0_radial_16_81259)"/>
<path style="mix-blend-mode:screen" opacity="0.5" d="M23.5904 46.9795C23.5659 51.5134 24.888 55.9525 27.389 59.7342C29.8901 63.516 33.4576 66.47 37.6393 68.2221C41.8211 69.9741 46.4288 70.4453 50.8786 69.5758C55.3284 68.7063 59.4199 66.5354 62.6346 63.3381C65.8493 60.1408 68.0423 56.0611 68.9359 51.6161C69.8295 47.1711 69.3834 42.5608 67.654 38.3697C65.9246 34.1785 62.9899 30.595 59.2218 28.0735C55.4537 25.552 51.0219 24.2059 46.4879 24.2058C40.4365 24.2057 34.6311 26.6011 30.3405 30.8685C26.05 35.1359 23.6231 40.9282 23.5904 46.9795Z" fill="url(#paint1_radial_16_81259)"/>
<path style="mix-blend-mode:screen" d="M27.4274 46.9798C27.4274 50.7496 28.5453 54.4348 30.6397 57.5693C32.7341 60.7038 35.7109 63.1469 39.1938 64.5895C42.6767 66.0322 46.5091 66.4096 50.2065 65.6742C53.9039 64.9387 57.3002 63.1233 59.9659 60.4577C62.6315 57.792 64.4469 54.3957 65.1824 50.6983C65.9178 47.0009 65.5403 43.1685 64.0977 39.6856C62.655 36.2028 60.212 33.2259 57.0775 31.1315C53.943 29.0371 50.2578 27.9192 46.488 27.9192C41.4328 27.9192 36.5846 29.9274 33.0101 33.5019C29.4355 37.0765 27.4274 41.9246 27.4274 46.9798Z" fill="url(#paint2_radial_16_81259)"/>
<path style="mix-blend-mode:screen" opacity="0.15" d="M143.028 465.817C142.905 472.261 144.705 478.596 148.198 484.012C151.692 489.428 156.719 493.68 162.64 496.226C168.561 498.772 175.106 499.496 181.44 498.306C187.774 497.115 193.61 494.064 198.202 489.542C202.795 485.02 205.935 479.233 207.224 472.918C208.512 466.603 207.889 460.047 205.435 454.088C202.981 448.128 198.806 443.035 193.445 439.459C188.083 435.883 181.777 433.985 175.332 434.009C166.859 434.039 158.735 437.385 152.698 443.33C146.661 449.275 143.19 457.346 143.028 465.817Z" fill="url(#paint3_radial_16_81259)"/>
<path style="mix-blend-mode:screen" opacity="0.5" d="M175.333 482.031C184.288 482.031 191.547 474.772 191.547 465.817C191.547 456.862 184.288 449.603 175.333 449.603C166.378 449.603 159.119 456.862 159.119 465.817C159.119 474.772 166.378 482.031 175.333 482.031Z" fill="url(#paint4_radial_16_81259)"/>
<path style="mix-blend-mode:screen" d="M175.333 479.308C182.784 479.308 188.824 473.268 188.824 465.817C188.824 458.366 182.784 452.326 175.333 452.326C167.882 452.326 161.842 458.366 161.842 465.817C161.842 473.268 167.882 479.308 175.333 479.308Z" fill="url(#paint5_radial_16_81259)"/>
<path style="mix-blend-mode:screen" opacity="0.15" d="M411.239 88.0711C411.239 94.4847 413.141 100.754 416.704 106.087C420.267 111.42 425.332 115.576 431.257 118.03C437.182 120.485 443.702 121.127 449.993 119.876C456.283 118.625 462.061 115.536 466.596 111.001C471.132 106.466 474.22 100.688 475.471 94.3974C476.722 88.1071 476.08 81.5869 473.626 75.6615C471.171 69.7361 467.015 64.6716 461.682 61.1084C456.35 57.5452 450.08 55.6433 443.667 55.6433C435.066 55.6433 426.818 59.0598 420.737 65.1412C414.655 71.2226 411.239 79.4707 411.239 88.0711Z" fill="url(#paint6_radial_16_81259)"/>
<path style="mix-blend-mode:screen" opacity="0.5" d="M427.452 88.0705C427.452 91.2773 428.403 94.4122 430.184 97.0785C431.966 99.7449 434.498 101.823 437.461 103.05C440.424 104.277 443.684 104.598 446.829 103.973C449.974 103.347 452.863 101.803 455.131 99.5355C457.398 97.268 458.943 94.3789 459.568 91.2337C460.194 88.0885 459.873 84.8284 458.645 81.8657C457.418 78.903 455.34 76.3708 452.674 74.5892C450.007 72.8076 446.873 71.8567 443.666 71.8567C439.366 71.8567 435.242 73.5649 432.201 76.6056C429.16 79.6463 427.452 83.7704 427.452 88.0705Z" fill="url(#paint7_radial_16_81259)"/>
<path style="mix-blend-mode:screen" d="M430.176 88.0711C430.077 90.7582 430.784 93.4135 432.205 95.6963C433.626 97.979 435.697 99.785 438.152 100.882C440.607 101.98 443.334 102.319 445.982 101.855C448.631 101.392 451.081 100.148 453.018 98.2823C454.954 96.4168 456.289 94.0151 456.851 91.3855C457.413 88.7559 457.176 86.0184 456.171 83.5243C455.166 81.0302 453.439 78.8932 451.211 77.3878C448.983 75.8823 446.356 75.077 443.667 75.0752C440.173 75.0728 436.815 76.4261 434.298 78.85C431.782 81.2739 430.304 84.5795 430.176 88.0711Z" fill="url(#paint8_radial_16_81259)"/>
<path style="mix-blend-mode:screen" opacity="0.15" d="M287.469 162.952C287.469 169.366 289.371 175.635 292.934 180.968C296.497 186.301 301.562 190.457 307.487 192.912C313.412 195.366 319.932 196.008 326.223 194.757C332.513 193.506 338.291 190.417 342.826 185.882C347.362 181.347 350.45 175.569 351.701 169.279C352.952 162.988 352.31 156.468 349.856 150.543C347.401 144.617 343.245 139.553 337.912 135.989C332.58 132.426 326.31 130.524 319.897 130.524C311.296 130.524 303.048 133.941 296.967 140.022C290.885 146.104 287.469 154.352 287.469 162.952Z" fill="url(#paint9_radial_16_81259)"/>
<path style="mix-blend-mode:screen" opacity="0.5" d="M303.682 162.952C303.682 166.158 304.633 169.293 306.414 171.96C308.196 174.626 310.728 176.704 313.691 177.931C316.654 179.159 319.914 179.48 323.059 178.854C326.204 178.228 329.093 176.684 331.361 174.417C333.628 172.149 335.172 169.26 335.798 166.115C336.424 162.97 336.103 159.71 334.875 156.747C333.648 153.784 331.57 151.252 328.904 149.47C326.237 147.689 323.102 146.738 319.896 146.738C315.595 146.738 311.471 148.446 308.431 151.487C305.39 154.527 303.682 158.651 303.682 162.952Z" fill="url(#paint10_radial_16_81259)"/>
<path style="mix-blend-mode:screen" d="M319.773 176.443C327.224 176.443 333.264 170.403 333.264 162.952C333.264 155.502 327.224 149.461 319.773 149.461C312.322 149.461 306.282 155.502 306.282 162.952C306.282 170.403 312.322 176.443 319.773 176.443Z" fill="url(#paint11_radial_16_81259)"/>
<path style="mix-blend-mode:screen" opacity="0.15" d="M119.142 157.753C119.142 162.311 120.495 166.767 123.03 170.556C125.565 174.344 129.168 177.295 133.382 179.033C137.596 180.772 142.231 181.221 146.7 180.322C151.169 179.424 155.271 177.219 158.485 173.987C161.7 170.755 163.883 166.642 164.757 162.168C165.631 157.694 165.158 153.061 163.396 148.857C161.635 144.653 158.665 141.066 154.863 138.551C151.061 136.037 146.598 134.707 142.039 134.732C139.022 134.732 136.034 135.328 133.248 136.487C130.462 137.645 127.932 139.343 125.804 141.482C123.677 143.621 121.993 146.16 120.849 148.953C119.706 151.745 119.126 154.736 119.142 157.753Z" fill="url(#paint12_radial_16_81259)"/>
<path style="mix-blend-mode:screen" opacity="0.5" d="M130.528 157.753C130.528 160.03 131.203 162.255 132.467 164.148C133.732 166.041 135.53 167.517 137.633 168.388C139.737 169.259 142.051 169.487 144.284 169.043C146.517 168.599 148.568 167.502 150.177 165.893C151.787 164.283 152.884 162.232 153.328 159.999C153.772 157.766 153.544 155.452 152.673 153.348C151.801 151.245 150.326 149.447 148.433 148.183C146.54 146.918 144.315 146.243 142.038 146.243C138.985 146.243 136.058 147.455 133.899 149.614C131.74 151.773 130.528 154.7 130.528 157.753Z" fill="url(#paint13_radial_16_81259)"/>
<path style="mix-blend-mode:screen" d="M132.509 157.753C132.509 159.638 133.068 161.481 134.115 163.048C135.162 164.615 136.651 165.837 138.392 166.558C140.134 167.279 142.05 167.468 143.898 167.1C145.747 166.733 147.445 165.825 148.778 164.492C150.111 163.159 151.019 161.461 151.386 159.613C151.754 157.764 151.565 155.848 150.844 154.106C150.123 152.365 148.901 150.876 147.334 149.829C145.767 148.782 143.924 148.223 142.039 148.223C140.783 148.206 139.536 148.441 138.373 148.915C137.209 149.388 136.151 150.089 135.263 150.977C134.375 151.866 133.673 152.923 133.2 154.087C132.727 155.25 132.492 156.497 132.509 157.753Z" fill="url(#paint14_radial_16_81259)"/>
<path style="mix-blend-mode:screen" opacity="0.15" d="M35.2251 313.704C35.2006 318.262 36.5299 322.726 39.0445 326.528C41.5592 330.33 45.146 333.3 49.3504 335.061C53.5547 336.822 58.1874 337.296 62.6612 336.422C67.135 335.548 71.2486 333.365 74.4805 330.15C77.7125 326.936 79.9174 322.834 80.8157 318.365C81.7141 313.896 81.2655 309.261 79.5268 305.047C77.788 300.833 74.8375 297.23 71.049 294.695C67.2606 292.16 62.8047 290.807 58.2463 290.807C52.1621 290.807 46.3252 293.215 42.0114 297.506C37.6976 301.796 35.2578 307.62 35.2251 313.704Z" fill="url(#paint15_radial_16_81259)"/>
<path style="mix-blend-mode:screen" opacity="0.5" d="M46.7358 313.705C46.7112 315.986 47.3654 318.224 48.6152 320.133C49.865 322.042 51.654 323.537 53.755 324.427C55.856 325.317 58.1742 325.563 60.4152 325.133C62.6561 324.703 64.7187 323.616 66.3409 322.012C67.9631 320.407 69.0717 318.356 69.526 316.12C69.9802 313.884 69.7596 311.563 68.8921 309.453C68.0247 307.342 66.5495 305.537 64.654 304.267C62.7585 302.996 60.5282 302.318 58.2464 302.318C55.2149 302.318 52.3057 303.513 50.1506 305.645C47.9955 307.777 46.7684 310.673 46.7358 313.705Z" fill="url(#paint16_radial_16_81259)"/>
<path style="mix-blend-mode:screen" d="M48.7153 313.704C48.7153 315.589 49.2743 317.431 50.3215 318.998C51.3687 320.566 52.8571 321.787 54.5985 322.509C56.34 323.23 58.2562 323.419 60.1049 323.051C61.9536 322.683 63.6517 321.775 64.9846 320.443C66.3174 319.11 67.2251 317.412 67.5928 315.563C67.9605 313.714 67.7718 311.798 67.0505 310.057C66.3292 308.315 65.1076 306.827 63.5404 305.779C61.9731 304.732 60.1306 304.173 58.2456 304.173C55.718 304.173 53.294 305.177 51.5067 306.965C49.7194 308.752 48.7153 311.176 48.7153 313.704Z" fill="url(#paint17_radial_16_81259)"/>
<path style="mix-blend-mode:screen" opacity="0.15" d="M449.112 308.01C449.015 312.573 450.275 317.061 452.733 320.906C455.192 324.75 458.737 327.778 462.92 329.603C467.102 331.429 471.733 331.97 476.223 331.158C480.714 330.346 484.862 328.218 488.141 325.044C491.42 321.87 493.681 317.793 494.638 313.331C495.595 308.869 495.204 304.223 493.515 299.984C491.826 295.745 488.916 292.103 485.153 289.521C481.39 286.939 476.944 285.534 472.381 285.484C469.374 285.435 466.387 285.979 463.59 287.084C460.793 288.19 458.241 289.835 456.081 291.927C453.92 294.019 452.192 296.516 450.997 299.275C449.801 302.035 449.161 305.003 449.112 308.01Z" fill="url(#paint18_radial_16_81259)"/>
<path style="mix-blend-mode:screen" opacity="0.5" d="M460.623 308.011C460.623 310.288 461.298 312.513 462.563 314.406C463.827 316.299 465.625 317.774 467.729 318.646C469.832 319.517 472.146 319.745 474.379 319.301C476.612 318.856 478.663 317.76 480.273 316.15C481.882 314.541 482.979 312.49 483.423 310.257C483.867 308.024 483.639 305.709 482.768 303.606C481.897 301.503 480.421 299.705 478.528 298.44C476.635 297.176 474.41 296.5 472.133 296.5C469.081 296.5 466.153 297.713 463.994 299.872C461.835 302.031 460.623 304.958 460.623 308.011Z" fill="url(#paint19_radial_16_81259)"/>
<path style="mix-blend-mode:screen" d="M462.603 308.01C462.724 309.853 463.377 311.622 464.484 313.1C465.591 314.579 467.104 315.703 468.839 316.338C470.573 316.972 472.455 317.089 474.255 316.674C476.054 316.259 477.695 315.33 478.976 314C480.258 312.67 481.125 310.996 481.473 309.182C481.82 307.368 481.634 305.492 480.935 303.782C480.236 302.073 479.056 300.603 477.537 299.552C476.018 298.5 474.227 297.913 472.381 297.861C471.055 297.824 469.736 298.064 468.508 298.566C467.28 299.068 466.17 299.82 465.25 300.776C464.329 301.731 463.618 302.868 463.163 304.114C462.707 305.359 462.516 306.687 462.603 308.01Z" fill="url(#paint20_radial_16_81259)"/>
<path style="mix-blend-mode:screen" opacity="0.15" d="M164.442 246.497C164.442 260.083 168.471 273.364 176.019 284.66C183.567 295.957 194.295 304.761 206.847 309.96C219.399 315.159 233.211 316.52 246.536 313.869C259.861 311.219 272.1 304.676 281.707 295.07C291.314 285.463 297.856 273.223 300.507 259.898C303.157 246.573 301.797 232.761 296.598 220.209C291.399 207.657 282.594 196.929 271.298 189.381C260.001 181.833 246.72 177.804 233.134 177.804C214.916 177.804 197.444 185.041 184.561 197.924C171.679 210.806 164.442 228.278 164.442 246.497Z" fill="url(#paint21_radial_16_81259)"/>
<path style="mix-blend-mode:screen" opacity="0.5" d="M198.849 246.497C198.873 253.272 200.905 259.889 204.687 265.51C208.469 271.132 213.832 275.507 220.099 278.083C226.366 280.659 233.255 281.32 239.897 279.984C246.54 278.647 252.637 275.372 257.419 270.572C262.202 265.773 265.455 259.663 266.768 253.016C268.081 246.369 267.394 239.482 264.796 233.225C262.197 226.967 257.803 221.62 252.168 217.858C246.532 214.097 239.909 212.089 233.133 212.089C228.621 212.089 224.152 212.98 219.985 214.71C215.817 216.441 212.032 218.978 208.847 222.174C205.662 225.371 203.139 229.165 201.423 233.339C199.707 237.513 198.833 241.984 198.849 246.497Z" fill="url(#paint22_radial_16_81259)"/>
<path style="mix-blend-mode:screen" d="M204.543 246.497C204.543 252.151 206.22 257.679 209.362 262.381C212.504 267.083 216.969 270.747 222.193 272.911C227.417 275.075 233.166 275.641 238.712 274.538C244.258 273.435 249.353 270.712 253.351 266.713C257.35 262.715 260.073 257.621 261.176 252.074C262.279 246.528 261.713 240.78 259.549 235.555C257.385 230.331 253.72 225.866 249.019 222.724C244.317 219.583 238.789 217.906 233.134 217.906C229.38 217.906 225.662 218.645 222.193 220.082C218.724 221.519 215.572 223.625 212.918 226.28C210.263 228.935 208.157 232.087 206.72 235.555C205.283 239.024 204.543 242.742 204.543 246.497Z" fill="url(#paint23_radial_16_81259)"/>
<path d="M46.3001 20.8811L46.5917 41.3223L49.2116 21.0476L47.1712 41.3888L52.0851 21.5449L47.7393 41.5209L54.8832 22.3665L48.2886 41.7169L57.5694 23.5017L48.812 41.9742L60.1087 24.9357L49.3026 42.2895L62.4679 26.6498L49.7542 42.6587L64.6164 28.6216L50.1606 43.077L66.5261 30.8256L50.5168 43.5389L68.1722 33.2328L50.818 44.0383L69.5331 35.812L51.0603 44.5689L70.5911 38.5296L51.2405 45.1236L71.3325 41.35L51.3563 45.6952L71.7475 44.2365L51.4062 46.2763L71.8308 47.1515L51.3896 46.8593L71.5812 50.0571L51.3066 47.4366L71.0021 52.9152L51.1583 48.0007L70.1009 55.6887L50.9467 48.5442L68.8895 58.3414L50.6745 49.0601L67.3836 60.8387L50.3453 49.5415L65.6028 63.148L49.9634 49.9823L63.5704 65.2393L49.5337 50.3767L61.3128 67.0854L49.0618 50.7195L58.8595 68.662L48.554 51.0063L56.2425 69.9487L48.0167 51.2333L53.4959 70.9287L47.4571 51.3976L50.6554 71.5892L46.8824 51.4971L47.7582 71.9216L46.3001 51.5304L44.842 71.9216L45.7178 51.4971L41.9448 71.5892L45.1431 51.3976L39.1044 70.9287L44.5835 51.2333L36.3577 69.9487L44.0463 51.0063L33.7407 68.662L43.5384 50.7195L31.2874 67.0854L43.0665 50.3767L29.0299 65.2393L42.6368 49.9823L26.9975 63.148L42.2549 49.5415L25.2167 60.8387L41.9257 49.0601L23.7107 58.3414L41.6535 48.5442L22.4993 55.6887L41.4419 48.0007L21.5981 52.9152L41.2936 47.4366L21.019 50.0571L41.2106 46.8593L20.7694 47.1515L41.194 46.2763L20.8527 44.2365L41.2439 45.6952L21.2677 41.35L41.3597 45.1236L22.0091 38.5296L41.5399 44.5689L23.0671 35.812L41.7822 44.0383L24.428 33.2328L42.0834 43.5389L26.0741 30.8256L42.4396 43.077L27.9838 28.6216L42.8461 42.6587L30.1323 26.6498L43.2976 42.2895L32.4916 24.9357L43.7882 41.9742L35.0308 23.5017L44.3116 41.7169L37.717 22.3665L44.861 41.5209L40.5151 21.5449L45.429 41.3888L43.3886 21.0476L46.0085 41.3223L46.3001 20.8811Z" fill="url(#paint24_linear_16_81259)"/>
<path d="M232.385 206.966L232.823 237.628L236.752 207.216L233.692 237.728L241.063 207.962L234.544 237.926L245.26 209.194L235.368 238.22L249.289 210.897L236.153 238.606L253.098 213.048L236.889 239.079L256.637 215.619L237.566 239.633L259.86 218.577L238.176 240.26L262.724 221.883L238.71 240.953L265.193 225.494L239.162 241.702L267.235 229.363L239.525 242.498L268.822 233.439L239.796 243.33L269.934 237.67L239.97 244.187L270.556 241.999L240.044 245.059L270.681 246.372L240.019 245.934L270.307 250.73L239.895 246.8L269.438 255.017L239.673 247.646L268.086 259.178L239.355 248.461L266.269 263.157L238.947 249.235L264.01 266.903L238.453 249.957L261.339 270.367L237.88 250.618L258.291 273.504L237.236 251.21L254.904 276.273L236.528 251.724L251.224 278.638L235.766 252.154L247.299 280.568L234.96 252.495L243.179 282.038L234.121 252.741L238.918 283.028L233.259 252.89L234.572 283.527L232.385 252.94L230.198 283.527L231.512 252.89L225.852 283.028L230.65 252.741L221.592 282.038L229.81 252.495L217.472 280.568L229.004 252.154L213.546 278.638L228.243 251.724L209.866 276.273L227.535 251.21L206.48 273.504L226.89 250.618L203.431 270.367L226.317 249.957L200.76 266.903L225.824 249.235L198.501 263.157L225.415 248.461L196.684 259.178L225.098 247.646L195.332 255.017L224.876 246.8L194.464 250.73L224.751 245.934L194.089 246.372L224.726 245.059L194.214 241.999L224.801 244.187L194.837 237.67L224.975 243.33L195.949 233.439L225.245 242.498L197.536 229.363L225.608 241.702L199.577 225.494L226.06 240.953L202.046 221.883L226.594 240.26L204.911 218.577L227.204 239.633L208.133 215.619L227.881 239.079L211.672 213.048L228.617 238.606L215.481 210.897L229.403 238.22L219.511 209.194L230.227 237.926L223.708 207.962L231.079 237.728L228.018 207.216L231.948 237.628L232.385 206.966Z" fill="url(#paint25_linear_16_81259)"/>
<path d="M319.955 150.411L320.1 160.632L321.41 150.494L320.39 160.665L322.847 150.743L320.674 160.731L324.246 151.154L320.949 160.829L325.589 151.721L321.211 160.958L326.859 152.438L321.456 161.115L328.039 153.295L321.682 161.3L329.113 154.281L321.885 161.509L330.068 155.383L322.063 161.74L330.891 156.587L322.214 161.99L331.571 157.877L322.335 162.255L332.1 159.235L322.425 162.532L332.471 160.646L322.483 162.818L332.678 162.089L322.508 163.109L332.72 163.546L322.499 163.4L332.595 164.999L322.458 163.689L332.306 166.428L322.384 163.971L331.855 167.815L322.278 164.243L331.249 169.141L322.142 164.501L330.496 170.39L321.977 164.741L329.606 171.545L321.786 164.962L328.59 172.59L321.571 165.159L327.461 173.513L321.335 165.33L326.234 174.302L321.082 165.474L324.926 174.945L320.813 165.587L323.552 175.435L320.533 165.669L322.132 175.765L320.246 165.719L320.684 175.931L319.955 165.736L319.226 175.931L319.663 165.719L317.777 175.765L319.376 165.669L316.357 175.435L319.096 165.587L314.983 174.945L318.828 165.474L313.675 174.302L318.574 165.33L312.448 173.513L318.338 165.159L311.32 172.59L318.123 164.962L310.303 171.545L317.932 164.741L309.413 170.39L317.767 164.501L308.66 169.141L317.631 164.243L308.054 167.815L317.526 163.971L307.604 166.428L317.451 163.689L307.314 164.999L317.41 163.4L307.189 163.546L317.402 163.109L307.231 162.089L317.427 162.818L307.438 160.646L317.484 162.532L307.809 159.235L317.575 162.255L308.338 157.877L317.696 161.99L309.019 156.587L317.846 161.74L309.842 155.383L318.024 161.509L310.796 154.281L318.228 161.3L311.871 153.295L318.453 161.115L313.05 152.438L318.699 160.958L314.32 151.721L318.96 160.829L315.663 151.154L319.235 160.731L317.062 150.743L319.519 160.665L318.499 150.494L319.809 160.632L319.955 150.411Z" fill="url(#paint26_linear_16_81259)"/>
<path d="M142.991 144.938L143.137 155.159L144.447 145.021L143.427 155.192L145.884 145.27L143.711 155.258L147.283 145.681L143.986 155.356L148.626 146.248L144.247 155.485L149.896 146.965L144.493 155.642L151.075 147.822L144.718 155.827L152.15 148.808L144.922 156.036L153.104 149.91L145.1 156.267L153.927 151.114L145.25 156.517L154.608 152.403L145.371 156.782L155.137 153.762L145.462 157.059L155.508 155.172L145.519 157.345L155.715 156.616L145.544 157.636L155.757 158.073L145.536 157.927L155.632 159.526L145.495 158.216L155.342 160.955L145.42 158.498L154.892 162.342L145.315 158.77L154.286 163.668L145.179 159.027L153.533 164.917L145.014 159.268L152.643 166.071L144.823 159.489L151.626 167.117L144.608 159.686L150.498 168.04L144.372 159.857L149.271 168.828L144.118 160.001L147.963 169.472L143.85 160.114L146.589 169.962L143.57 160.196L145.169 170.292L143.283 160.246L143.72 170.458L142.991 160.263L142.262 170.458L142.7 160.246L140.814 170.292L142.413 160.196L139.393 169.962L142.133 160.114L138.02 169.472L141.864 160.001L136.712 168.828L141.611 159.857L135.485 168.04L141.375 159.686L134.356 167.117L141.16 159.489L133.34 166.071L140.969 159.268L132.45 164.917L140.804 159.027L131.697 163.668L140.668 158.77L131.091 162.342L140.562 158.498L130.64 160.955L140.488 158.216L130.351 159.526L140.447 157.927L130.226 158.073L140.438 157.636L130.268 156.616L140.463 157.345L130.475 155.172L140.521 157.059L130.846 153.762L140.611 156.782L131.375 152.403L140.732 156.517L132.055 151.114L140.883 156.267L132.878 149.91L141.061 156.036L133.833 148.808L141.264 155.827L134.907 147.822L141.49 155.642L136.087 146.965L141.735 155.485L137.357 146.248L141.997 155.356L138.7 145.681L142.272 155.258L140.099 145.27L142.556 155.192L141.536 145.021L142.846 155.159L142.991 144.938Z" fill="url(#paint27_linear_16_81259)"/>
<path d="M59.0707 301.833L59.2165 312.053L60.5264 301.916L59.5062 312.086L61.9632 302.164L59.7903 312.152L63.3622 302.575L60.0649 312.25L64.7053 303.143L60.3266 312.379L65.975 303.86L60.572 312.537L67.1546 304.717L60.7977 312.721L68.2289 305.703L61.001 312.93L69.1837 306.805L61.1791 313.161L70.0067 308.008L61.3296 313.411L70.6872 309.298L61.4508 313.676L71.2162 310.657L61.5409 313.954L71.5869 312.067L61.5988 314.24L71.7944 313.51L61.6238 314.53L71.836 314.968L61.6154 314.822L71.7113 316.42L61.5739 315.11L71.4217 317.85L61.4998 315.392L70.9711 319.236L61.394 315.664L70.3654 320.563L61.2579 315.922L69.6124 321.811L61.0933 316.163L68.722 322.966L60.9023 316.383L67.7058 324.012L60.6875 316.58L66.577 324.935L60.4516 316.752L65.3504 325.723L60.1976 316.895L64.0419 326.366L59.929 317.009L62.6686 326.856L59.6492 317.091L61.2484 327.187L59.3619 317.141L59.7998 327.353L59.0707 317.157L58.3417 327.353L58.7796 317.141L56.893 327.187L58.4922 317.091L55.4728 326.856L58.2124 317.009L54.0995 326.366L57.9438 316.895L52.791 325.723L57.6899 316.752L51.5644 324.935L57.4539 316.58L50.4356 324.012L57.2391 316.383L49.4194 322.966L57.0481 316.163L48.529 321.811L56.8835 315.922L47.776 320.563L56.7474 315.664L47.1703 319.236L56.6416 315.392L46.7197 317.85L56.5675 315.11L46.4302 316.42L56.526 314.822L46.3054 314.968L56.5176 314.53L46.347 313.51L56.5426 314.24L46.5545 312.067L56.6005 313.954L46.9252 310.657L56.6906 313.676L47.4542 309.298L56.8118 313.411L48.1347 308.008L56.9624 313.161L48.9577 306.805L57.1404 312.93L49.9125 305.703L57.3437 312.721L50.9868 304.717L57.5694 312.537L52.1664 303.86L57.8148 312.379L53.4361 303.143L58.0765 312.25L54.7792 302.575L58.3511 312.152L56.1782 302.164L58.6352 312.086L57.615 301.916L58.9249 312.053L59.0707 301.833Z" fill="url(#paint28_linear_16_81259)"/>
<path d="M176.742 445.958L176.961 461.288L178.926 446.082L177.396 461.338L181.081 446.455L177.822 461.437L183.18 447.072L178.234 461.584L185.194 447.923L178.626 461.777L187.099 448.998L178.994 462.014L188.868 450.284L179.333 462.291L190.479 451.763L179.638 462.604L191.912 453.416L179.905 462.951L193.146 455.221L180.131 463.325L194.167 457.156L180.312 463.723L194.96 459.194L180.448 464.139L195.517 461.309L180.534 464.568L195.828 463.474L180.572 465.004L195.89 465.66L180.559 465.441L195.703 467.839L180.497 465.874L195.269 469.983L180.386 466.297L194.593 472.063L180.227 466.705L193.684 474.053L180.023 467.092L192.555 475.926L179.776 467.453L191.219 477.658L179.49 467.783L189.695 479.226L179.167 468.079L188.002 480.611L178.814 468.336L186.162 481.793L178.433 468.551L184.199 482.758L178.03 468.722L182.139 483.493L177.61 468.845L180.009 483.989L177.179 468.92L177.836 484.238L176.742 468.944L175.649 484.238L176.306 468.92L173.476 483.989L175.874 468.845L171.345 483.493L175.455 468.722L169.285 482.758L175.052 468.551L167.323 481.793L174.671 468.336L165.483 480.611L174.317 468.079L163.79 479.226L173.995 467.783L162.265 477.658L173.708 467.453L160.93 475.926L173.461 467.092L159.8 474.053L173.257 466.705L158.892 472.063L173.099 466.297L158.216 469.983L172.987 465.874L157.781 467.839L172.925 465.441L157.594 465.66L172.913 465.004L157.657 463.474L172.95 464.568L157.968 461.309L173.037 464.139L158.524 459.194L173.172 463.723L159.317 457.156L173.354 463.325L160.338 455.221L173.58 462.951L161.573 453.416L173.847 462.604L163.005 451.763L174.152 462.291L164.616 450.284L174.49 462.014L166.386 448.998L174.858 461.777L168.29 447.923L175.251 461.584L170.305 447.072L175.663 461.437L172.404 446.455L176.089 461.338L174.559 446.082L176.524 461.288L176.742 445.958Z" fill="url(#paint29_linear_16_81259)"/>
<defs>
<radialGradient id="paint0_radial_16_81259" cx="0" cy="0" r="1" gradientUnits="userSpaceOnUse" gradientTransform="translate(46.4876 46.9792) scale(45.795 45.7949)">
<stop stop-color="#220000"/>
<stop offset="0.73" stop-color="#984023"/>
<stop offset="1" stop-color="#220000"/>
</radialGradient>
<radialGradient id="paint1_radial_16_81259" cx="0" cy="0" r="1" gradientUnits="userSpaceOnUse" gradientTransform="translate(46.4879 46.9795) scale(22.8975 22.8975)">
<stop offset="0.15" stop-color="white"/>
<stop offset="0.21" stop-color="#E5D3D3"/>
<stop offset="0.29" stop-color="#C49C9E"/>
<stop offset="0.36" stop-color="#AD7477"/>
<stop offset="0.42" stop-color="#9E5C5F"/>
<stop offset="0.45" stop-color="#995356"/>
<stop offset="0.57" stop-color="#6B3335"/>
<stop offset="0.69" stop-color="#431718"/>
<stop offset="0.79" stop-color="#2B0606"/>
<stop offset="0.85" stop-color="#220000"/>
<stop offset="0.86" stop-color="#330704"/>
<stop offset="0.87" stop-color="#471009"/>
<stop offset="0.88" stop-color="#641D0F"/>
<stop offset="0.89" stop-color="#8A2E18"/>
<stop offset="0.9" stop-color="#C84927"/>
<stop offset="0.91" stop-color="#9C361C"/>
<stop offset="0.93" stop-color="#772514"/>
<stop offset="0.94" stop-color="#58180C"/>
<stop offset="0.95" stop-color="#400D07"/>
<stop offset="0.97" stop-color="#2F0603"/>
<stop offset="0.98" stop-color="#250101"/>
<stop offset="1" stop-color="#220000"/>
</radialGradient>
<radialGradient id="paint2_radial_16_81259" cx="0" cy="0" r="1" gradientUnits="userSpaceOnUse" gradientTransform="translate(46.488 46.9798) scale(19.0606)">
<stop offset="0.15" stop-color="white"/>
<stop offset="0.28" stop-color="#C2C2C2"/>
<stop offset="0.43" stop-color="#888888"/>
<stop offset="0.56" stop-color="#575757"/>
<stop offset="0.69" stop-color="#313131"/>
<stop offset="0.81" stop-color="#161616"/>
<stop offset="0.92" stop-color="#060606"/>
<stop offset="1"/>
</radialGradient>
<radialGradient id="paint3_radial_16_81259" cx="0" cy="0" r="1" gradientUnits="userSpaceOnUse" gradientTransform="translate(175.456 465.817) scale(32.4278 32.4278)">
<stop stop-color="#220000"/>
<stop offset="0.73" stop-color="#984023"/>
<stop offset="1" stop-color="#220000"/>
</radialGradient>
<radialGradient id="paint4_radial_16_81259" cx="0" cy="0" r="1" gradientUnits="userSpaceOnUse" gradientTransform="translate(175.333 465.817) scale(16.2139)">
<stop offset="0.15" stop-color="white"/>
<stop offset="0.21" stop-color="#E5D3D3"/>
<stop offset="0.29" stop-color="#C49C9E"/>
<stop offset="0.36" stop-color="#AD7477"/>
<stop offset="0.42" stop-color="#9E5C5F"/>
<stop offset="0.45" stop-color="#995356"/>
<stop offset="0.57" stop-color="#6B3335"/>
<stop offset="0.69" stop-color="#431718"/>
<stop offset="0.79" stop-color="#2B0606"/>
<stop offset="0.85" stop-color="#220000"/>
<stop offset="0.86" stop-color="#330704"/>
<stop offset="0.87" stop-color="#471009"/>
<stop offset="0.88" stop-color="#641D0F"/>
<stop offset="0.89" stop-color="#8A2E18"/>
<stop offset="0.9" stop-color="#C84927"/>
<stop offset="0.91" stop-color="#9C361C"/>
<stop offset="0.93" stop-color="#772514"/>
<stop offset="0.94" stop-color="#58180C"/>
<stop offset="0.95" stop-color="#400D07"/>
<stop offset="0.97" stop-color="#2F0603"/>
<stop offset="0.98" stop-color="#250101"/>
<stop offset="1" stop-color="#220000"/>
</radialGradient>
<radialGradient id="paint5_radial_16_81259" cx="0" cy="0" r="1" gradientUnits="userSpaceOnUse" gradientTransform="translate(175.333 465.817) scale(13.4909)">
<stop offset="0.15" stop-color="white"/>
<stop offset="0.28" stop-color="#C2C2C2"/>
<stop offset="0.43" stop-color="#888888"/>
<stop offset="0.56" stop-color="#575757"/>
<stop offset="0.69" stop-color="#313131"/>
<stop offset="0.81" stop-color="#161616"/>
<stop offset="0.92" stop-color="#060606"/>
<stop offset="1"/>
</radialGradient>
<radialGradient id="paint6_radial_16_81259" cx="0" cy="0" r="1" gradientUnits="userSpaceOnUse" gradientTransform="translate(443.667 88.0711) scale(32.4278 32.4278)">
<stop stop-color="#220000"/>
<stop offset="0.73" stop-color="#984023"/>
<stop offset="1" stop-color="#220000"/>
</radialGradient>
<radialGradient id="paint7_radial_16_81259" cx="0" cy="0" r="1" gradientUnits="userSpaceOnUse" gradientTransform="translate(443.666 88.0706) scale(16.2139 16.2139)">
<stop offset="0.15" stop-color="white"/>
<stop offset="0.21" stop-color="#E5D3D3"/>
<stop offset="0.29" stop-color="#C49C9E"/>
<stop offset="0.36" stop-color="#AD7477"/>
<stop offset="0.42" stop-color="#9E5C5F"/>
<stop offset="0.45" stop-color="#995356"/>
<stop offset="0.57" stop-color="#6B3335"/>
<stop offset="0.69" stop-color="#431718"/>
<stop offset="0.79" stop-color="#2B0606"/>
<stop offset="0.85" stop-color="#220000"/>
<stop offset="0.86" stop-color="#330704"/>
<stop offset="0.87" stop-color="#471009"/>
<stop offset="0.88" stop-color="#641D0F"/>
<stop offset="0.89" stop-color="#8A2E18"/>
<stop offset="0.9" stop-color="#C84927"/>
<stop offset="0.91" stop-color="#9C361C"/>
<stop offset="0.93" stop-color="#772514"/>
<stop offset="0.94" stop-color="#58180C"/>
<stop offset="0.95" stop-color="#400D07"/>
<stop offset="0.97" stop-color="#2F0603"/>
<stop offset="0.98" stop-color="#250101"/>
<stop offset="1" stop-color="#220000"/>
</radialGradient>
<radialGradient id="paint8_radial_16_81259" cx="0" cy="0" r="1" gradientUnits="userSpaceOnUse" gradientTransform="translate(443.667 88.0711) scale(13.4909 13.4909)">
<stop offset="0.15" stop-color="white"/>
<stop offset="0.28" stop-color="#C2C2C2"/>
<stop offset="0.43" stop-color="#888888"/>
<stop offset="0.56" stop-color="#575757"/>
<stop offset="0.69" stop-color="#313131"/>
<stop offset="0.81" stop-color="#161616"/>
<stop offset="0.92" stop-color="#060606"/>
<stop offset="1"/>
</radialGradient>
<radialGradient id="paint9_radial_16_81259" cx="0" cy="0" r="1" gradientUnits="userSpaceOnUse" gradientTransform="translate(319.897 162.952) scale(32.4278 32.4278)">
<stop stop-color="#220000"/>
<stop offset="0.73" stop-color="#984023"/>
<stop offset="1" stop-color="#220000"/>
</radialGradient>
<radialGradient id="paint10_radial_16_81259" cx="0" cy="0" r="1" gradientUnits="userSpaceOnUse" gradientTransform="translate(319.896 162.952) scale(16.2139)">
<stop offset="0.15" stop-color="white"/>
<stop offset="0.21" stop-color="#E5D3D3"/>
<stop offset="0.29" stop-color="#C49C9E"/>
<stop offset="0.36" stop-color="#AD7477"/>
<stop offset="0.42" stop-color="#9E5C5F"/>
<stop offset="0.45" stop-color="#995356"/>
<stop offset="0.57" stop-color="#6B3335"/>
<stop offset="0.69" stop-color="#431718"/>
<stop offset="0.79" stop-color="#2B0606"/>
<stop offset="0.85" stop-color="#220000"/>
<stop offset="0.86" stop-color="#330704"/>
<stop offset="0.87" stop-color="#471009"/>
<stop offset="0.88" stop-color="#641D0F"/>
<stop offset="0.89" stop-color="#8A2E18"/>
<stop offset="0.9" stop-color="#C84927"/>
<stop offset="0.91" stop-color="#9C361C"/>
<stop offset="0.93" stop-color="#772514"/>
<stop offset="0.94" stop-color="#58180C"/>
<stop offset="0.95" stop-color="#400D07"/>
<stop offset="0.97" stop-color="#2F0603"/>
<stop offset="0.98" stop-color="#250101"/>
<stop offset="1" stop-color="#220000"/>
</radialGradient>
<radialGradient id="paint11_radial_16_81259" cx="0" cy="0" r="1" gradientUnits="userSpaceOnUse" gradientTransform="translate(319.773 162.952) scale(13.4909)">
<stop offset="0.15" stop-color="white"/>
<stop offset="0.28" stop-color="#C2C2C2"/>
<stop offset="0.43" stop-color="#888888"/>
<stop offset="0.56" stop-color="#575757"/>
<stop offset="0.69" stop-color="#313131"/>
<stop offset="0.81" stop-color="#161616"/>
<stop offset="0.92" stop-color="#060606"/>
<stop offset="1"/>
</radialGradient>
<radialGradient id="paint12_radial_16_81259" cx="0" cy="0" r="1" gradientUnits="userSpaceOnUse" gradientTransform="translate(142.039 157.753) scale(23.0213 23.0212)">
<stop stop-color="#220000"/>
<stop offset="0.73" stop-color="#984023"/>
<stop offset="1" stop-color="#220000"/>
</radialGradient>
<radialGradient id="paint13_radial_16_81259" cx="0" cy="0" r="1" gradientUnits="userSpaceOnUse" gradientTransform="translate(142.038 157.753) scale(11.5106)">
<stop offset="0.15" stop-color="white"/>
<stop offset="0.21" stop-color="#E5D3D3"/>
<stop offset="0.29" stop-color="#C49C9E"/>
<stop offset="0.36" stop-color="#AD7477"/>
<stop offset="0.42" stop-color="#9E5C5F"/>
<stop offset="0.45" stop-color="#995356"/>
<stop offset="0.57" stop-color="#6B3335"/>
<stop offset="0.69" stop-color="#431718"/>
<stop offset="0.79" stop-color="#2B0606"/>
<stop offset="0.85" stop-color="#220000"/>
<stop offset="0.86" stop-color="#330704"/>
<stop offset="0.87" stop-color="#471009"/>
<stop offset="0.88" stop-color="#641D0F"/>
<stop offset="0.89" stop-color="#8A2E18"/>
<stop offset="0.9" stop-color="#C84927"/>
<stop offset="0.91" stop-color="#9C361C"/>
<stop offset="0.93" stop-color="#772514"/>
<stop offset="0.94" stop-color="#58180C"/>
<stop offset="0.95" stop-color="#400D07"/>
<stop offset="0.97" stop-color="#2F0603"/>
<stop offset="0.98" stop-color="#250101"/>
<stop offset="1" stop-color="#220000"/>
</radialGradient>
<radialGradient id="paint14_radial_16_81259" cx="0" cy="0" r="1" gradientUnits="userSpaceOnUse" gradientTransform="translate(142.039 157.753) scale(9.5303)">
<stop offset="0.15" stop-color="white"/>
<stop offset="0.28" stop-color="#C2C2C2"/>
<stop offset="0.43" stop-color="#888888"/>
<stop offset="0.56" stop-color="#575757"/>
<stop offset="0.69" stop-color="#313131"/>
<stop offset="0.81" stop-color="#161616"/>
<stop offset="0.92" stop-color="#060606"/>
<stop offset="1"/>
</radialGradient>
<radialGradient id="paint15_radial_16_81259" cx="0" cy="0" r="1" gradientUnits="userSpaceOnUse" gradientTransform="translate(58.2463 313.704) scale(23.0212 23.0212)">
<stop stop-color="#220000"/>
<stop offset="0.73" stop-color="#984023"/>
<stop offset="1" stop-color="#220000"/>
</radialGradient>
<radialGradient id="paint16_radial_16_81259" cx="0" cy="0" r="1" gradientUnits="userSpaceOnUse" gradientTransform="translate(58.2464 313.705) scale(11.5106 11.5106)">
<stop offset="0.15" stop-color="white"/>
<stop offset="0.21" stop-color="#E5D3D3"/>
<stop offset="0.29" stop-color="#C49C9E"/>
<stop offset="0.36" stop-color="#AD7477"/>
<stop offset="0.42" stop-color="#9E5C5F"/>
<stop offset="0.45" stop-color="#995356"/>
<stop offset="0.57" stop-color="#6B3335"/>
<stop offset="0.69" stop-color="#431718"/>
<stop offset="0.79" stop-color="#2B0606"/>
<stop offset="0.85" stop-color="#220000"/>
<stop offset="0.86" stop-color="#330704"/>
<stop offset="0.87" stop-color="#471009"/>
<stop offset="0.88" stop-color="#641D0F"/>
<stop offset="0.89" stop-color="#8A2E18"/>
<stop offset="0.9" stop-color="#C84927"/>
<stop offset="0.91" stop-color="#9C361C"/>
<stop offset="0.93" stop-color="#772514"/>
<stop offset="0.94" stop-color="#58180C"/>
<stop offset="0.95" stop-color="#400D07"/>
<stop offset="0.97" stop-color="#2F0603"/>
<stop offset="0.98" stop-color="#250101"/>
<stop offset="1" stop-color="#220000"/>
</radialGradient>
<radialGradient id="paint17_radial_16_81259" cx="0" cy="0" r="1" gradientUnits="userSpaceOnUse" gradientTransform="translate(58.2456 313.704) scale(9.5303 9.53032)">
<stop offset="0.15" stop-color="white"/>
<stop offset="0.28" stop-color="#C2C2C2"/>
<stop offset="0.43" stop-color="#888888"/>
<stop offset="0.56" stop-color="#575757"/>
<stop offset="0.69" stop-color="#313131"/>
<stop offset="0.81" stop-color="#161616"/>
<stop offset="0.92" stop-color="#060606"/>
<stop offset="1"/>
</radialGradient>
<radialGradient id="paint18_radial_16_81259" cx="0" cy="0" r="1" gradientUnits="userSpaceOnUse" gradientTransform="translate(472.134 308.01) scale(23.0212 23.0213)">
<stop stop-color="#220000"/>
<stop offset="0.73" stop-color="#984023"/>
<stop offset="1" stop-color="#220000"/>
</radialGradient>
<radialGradient id="paint19_radial_16_81259" cx="0" cy="0" r="1" gradientUnits="userSpaceOnUse" gradientTransform="translate(472.133 308.011) scale(11.5106 11.5106)">
<stop offset="0.15" stop-color="white"/>
<stop offset="0.21" stop-color="#E5D3D3"/>
<stop offset="0.29" stop-color="#C49C9E"/>
<stop offset="0.36" stop-color="#AD7477"/>
<stop offset="0.42" stop-color="#9E5C5F"/>
<stop offset="0.45" stop-color="#995356"/>
<stop offset="0.57" stop-color="#6B3335"/>
<stop offset="0.69" stop-color="#431718"/>
<stop offset="0.79" stop-color="#2B0606"/>
<stop offset="0.85" stop-color="#220000"/>
<stop offset="0.86" stop-color="#330704"/>
<stop offset="0.87" stop-color="#471009"/>
<stop offset="0.88" stop-color="#641D0F"/>
<stop offset="0.89" stop-color="#8A2E18"/>
<stop offset="0.9" stop-color="#C84927"/>
<stop offset="0.91" stop-color="#9C361C"/>
<stop offset="0.93" stop-color="#772514"/>
<stop offset="0.94" stop-color="#58180C"/>
<stop offset="0.95" stop-color="#400D07"/>
<stop offset="0.97" stop-color="#2F0603"/>
<stop offset="0.98" stop-color="#250101"/>
<stop offset="1" stop-color="#220000"/>
</radialGradient>
<radialGradient id="paint20_radial_16_81259" cx="0" cy="0" r="1" gradientUnits="userSpaceOnUse" gradientTransform="translate(472.133 308.01) scale(9.53029 9.5303)">
<stop offset="0.15" stop-color="white"/>
<stop offset="0.28" stop-color="#C2C2C2"/>
<stop offset="0.43" stop-color="#888888"/>
<stop offset="0.56" stop-color="#575757"/>
<stop offset="0.69" stop-color="#313131"/>
<stop offset="0.81" stop-color="#161616"/>
<stop offset="0.92" stop-color="#060606"/>
<stop offset="1"/>
</radialGradient>
<radialGradient id="paint21_radial_16_81259" cx="0" cy="0" r="1" gradientUnits="userSpaceOnUse" gradientTransform="translate(233.134 246.497) scale(68.5687)">
<stop stop-color="#220000"/>
<stop offset="0.73" stop-color="#984023"/>
<stop offset="1" stop-color="#220000"/>
</radialGradient>
<radialGradient id="paint22_radial_16_81259" cx="0" cy="0" r="1" gradientUnits="userSpaceOnUse" gradientTransform="translate(233.133 246.497) scale(34.2843)">
<stop offset="0.15" stop-color="white"/>
<stop offset="0.21" stop-color="#E5D3D3"/>
<stop offset="0.29" stop-color="#C49C9E"/>
<stop offset="0.36" stop-color="#AD7477"/>
<stop offset="0.42" stop-color="#9E5C5F"/>
<stop offset="0.45" stop-color="#995356"/>
<stop offset="0.57" stop-color="#6B3335"/>
<stop offset="0.69" stop-color="#431718"/>
<stop offset="0.79" stop-color="#2B0606"/>
<stop offset="0.85" stop-color="#220000"/>
<stop offset="0.86" stop-color="#330704"/>
<stop offset="0.87" stop-color="#471009"/>
<stop offset="0.88" stop-color="#641D0F"/>
<stop offset="0.89" stop-color="#8A2E18"/>
<stop offset="0.9" stop-color="#C84927"/>
<stop offset="0.91" stop-color="#9C361C"/>
<stop offset="0.93" stop-color="#772514"/>
<stop offset="0.94" stop-color="#58180C"/>
<stop offset="0.95" stop-color="#400D07"/>
<stop offset="0.97" stop-color="#2F0603"/>
<stop offset="0.98" stop-color="#250101"/>
<stop offset="1" stop-color="#220000"/>
</radialGradient>
<radialGradient id="paint23_radial_16_81259" cx="0" cy="0" r="1" gradientUnits="userSpaceOnUse" gradientTransform="translate(233.134 246.497) scale(28.5909)">
<stop offset="0.15" stop-color="white"/>
<stop offset="0.28" stop-color="#C2C2C2"/>
<stop offset="0.43" stop-color="#888888"/>
<stop offset="0.56" stop-color="#575757"/>
<stop offset="0.69" stop-color="#313131"/>
<stop offset="0.81" stop-color="#161616"/>
<stop offset="0.92" stop-color="#060606"/>
<stop offset="1"/>
</radialGradient>
<linearGradient id="paint24_linear_16_81259" x1="46.3001" y1="20.8811" x2="46.3001" y2="71.9633" gradientUnits="userSpaceOnUse">
<stop stop-color="#58A5FF"/>
<stop offset="0.48761" stop-color="white"/>
<stop offset="1" stop-color="white"/>
</linearGradient>
<linearGradient id="paint25_linear_16_81259" x1="232.385" y1="206.966" x2="232.385" y2="283.59" gradientUnits="userSpaceOnUse">
<stop stop-color="#58A5FF"/>
<stop offset="0.48761" stop-color="white"/>
<stop offset="1" stop-color="white"/>
</linearGradient>
<linearGradient id="paint26_linear_16_81259" x1="319.955" y1="150.411" x2="319.955" y2="175.952" gradientUnits="userSpaceOnUse">
<stop stop-color="#58A5FF"/>
<stop offset="0.48761" stop-color="white"/>
<stop offset="1" stop-color="white"/>
</linearGradient>
<linearGradient id="paint27_linear_16_81259" x1="142.991" y1="144.938" x2="142.991" y2="170.479" gradientUnits="userSpaceOnUse">
<stop stop-color="#58A5FF"/>
<stop offset="0.48761" stop-color="white"/>
<stop offset="1" stop-color="white"/>
</linearGradient>
<linearGradient id="paint28_linear_16_81259" x1="59.0707" y1="301.833" x2="59.0707" y2="327.374" gradientUnits="userSpaceOnUse">
<stop stop-color="#58A5FF"/>
<stop offset="0.48761" stop-color="white"/>
<stop offset="1" stop-color="white"/>
</linearGradient>
<linearGradient id="paint29_linear_16_81259" x1="176.742" y1="445.958" x2="176.742" y2="484.269" gradientUnits="userSpaceOnUse">
<stop stop-color="#58A5FF"/>
<stop offset="0.48761" stop-color="white"/>
<stop offset="1" stop-color="white"/>
</linearGradient>
</defs>
</svg>
